<svg width="152" height="211" viewBox="0 0 152 211" fill="none" xmlns="http://www.w3.org/2000/svg">
<path d="M55.8027 168.409C46.2181 170.467 42.6128 174.572 42.0083 176.368C42.723 176.242 72.2231 170.119 86.8838 167.073L81.6974 150.327L92.2587 147.409L88.2028 141.711L76.0278 148.263L80.5789 162.658C76.3138 163.718 65.3874 166.35 55.8027 168.409Z" fill="#282121" stroke="black" stroke-linecap="round" stroke-linejoin="round"/>
<path d="M121.799 209.982C122.362 209.933 121.116 172.115 128.296 156.817L108.507 149.056L91.6099 131.856L88.9254 136.611L104.972 153.269L123.737 159.449C111.386 191.946 121.094 210.044 121.799 209.982Z" fill="#282121" stroke="black" stroke-linecap="round" stroke-linejoin="round"/>
<path d="M52.0097 42.9474C52.5772 41.8182 44.064 -2.22067 89.4687 6.81295C97.982 11.1416 113.873 22.0572 109.333 31.0908C110.846 32.0318 112.939 34.7806 112.939 35.684C112.939 36.8132 117.036 47.2667 111.036 50.8519L110.468 51.4165C111.036 54.8041 111.376 62.7085 108.198 67.2253C108.314 68.9773 109.045 72.7462 111.036 73.8055C113.524 75.1298 112.303 84.6288 96.1245 90.2782C80.64 93.9424 56.1802 90.4869 61.0905 75.1298C58.2527 70.6129 54.8474 64.9669 55.4149 64.4023C55.869 63.9506 54.8474 58.5681 54.2798 55.9333C52.7663 52.9221 51.1324 47.2364 51.5864 46.7847C52.0405 46.333 51.6313 43.8884 52.0097 42.9474Z" fill="#F6E7CC"/>
<path d="M108.198 67.2253C111.376 62.7085 111.036 54.8041 110.468 51.4165L111.036 50.8519C117.036 47.2667 112.939 36.8132 112.939 35.684C112.939 34.7806 110.846 32.0318 109.333 31.0908C113.873 22.0572 97.982 11.1416 89.4687 6.81295C44.064 -2.22067 52.5772 41.8182 52.0097 42.9474C51.6313 43.8884 52.0405 46.333 51.5864 46.7847C51.1324 47.2364 52.7663 52.9221 54.2798 55.9333C54.8474 58.5681 55.869 63.9506 55.4149 64.4023C54.8474 64.9669 58.2527 70.6129 61.0905 75.1298M108.198 67.2253C104.225 72.8713 79.1053 83.0165 73.9972 81.8873C68.8892 80.7581 63.9283 79.6466 61.0905 75.1298M108.198 67.2253C108.314 68.9773 109.045 72.7462 111.036 73.8055C113.524 75.1298 112.303 84.6288 96.1245 90.2782C80.64 93.9424 56.1802 90.4869 61.0905 75.1298" stroke="black" stroke-width="0.5"/>
<path d="M90.6033 19.2342C95.5978 16.5241 90.7925 9.44775 87.7655 6.24834C79.3782 4.92397 74.1441 5.68375 67.901 9.07136C53.712 8.50676 51.1404 31.7112 52.0091 42.9475C48.8308 42.0441 48.7931 33.9138 49.1715 29.9616C48.0364 27.1386 53.712 9.07135 62.2254 3.42533C69.0361 -1.09148 77.5494 1.54333 80.9548 3.42533L89.4682 3.98993C108.538 5.79666 114.441 24.3156 115.008 33.3492C113.873 35.6076 109.9 36.1722 109.9 35.6076C109.9 35.1559 108.387 34.6666 107.63 34.4784C107.63 35.4194 107.29 37.4144 105.927 37.866C104.565 38.3177 101.954 35.043 100.819 33.3492C102.636 29.2841 100.441 26.7622 99.1167 26.0094C95.9383 27.8161 92.1168 22.2454 90.6033 19.2342Z" fill="black" stroke="black" stroke-width="0.1"/>
<path d="M60.5223 24.8804C58.2521 23.977 54.6575 29.7736 53.144 32.7848C54.6575 31.6556 58.1386 29.2842 59.9547 28.8325C62.225 28.2679 63.3601 26.0096 60.5223 24.8804Z" fill="black"/>
<path d="M75.8464 26.0095C74.0302 26.9128 73.9545 24.1275 74.1437 22.6219C76.4139 20.9281 84.3598 20.3635 85.4949 22.0573C86.403 23.4123 84.3598 24.1275 83.2246 24.3157C78.6842 23.751 78.1166 24.8804 75.8464 26.0095Z" fill="black"/>
<path d="M60.5223 24.8804C58.2521 23.977 54.6575 29.7736 53.144 32.7848C54.6575 31.6556 58.1386 29.2842 59.9547 28.8325C62.225 28.2679 63.3601 26.0096 60.5223 24.8804Z" stroke="black" stroke-width="0.1"/>
<path d="M75.8464 26.0095C74.0302 26.9128 73.9545 24.1275 74.1437 22.6219C76.4139 20.9281 84.3598 20.3635 85.4949 22.0573C86.403 23.4123 84.3598 24.1275 83.2246 24.3157C78.6842 23.751 78.1166 24.8804 75.8464 26.0095Z" stroke="black" stroke-width="0.1"/>
<path d="M77.5499 45.7705C76.6418 45.3188 74.9558 45.9496 74.7121 46.8997H74.9558L77.5499 45.7705Z" fill="black"/>
<path d="M68.1843 47.9235C67.5281 47.7345 67.0332 48.9137 66.9325 49.3932L68.1843 48.7705C68.4145 48.656 68.8404 48.1124 68.1843 47.9235Z" fill="black"/>
<path d="M76.8303 40.7106C78.5057 41.2176 82.9984 43.8509 79.82 45.2059M64.496 45.7705C63.9284 47.2761 63.4744 50.1744 66.1986 49.7227M69.2824 32.0956C69.0706 35.6292 68.774 42.9473 69.2824 43.9511M72.9299 41.4424C73.6125 41.4424 74.8393 42.5284 74.7121 43.1607M74.7121 46.8997C74.9558 45.9496 76.6418 45.3188 77.5499 45.7705L74.9558 46.8997H74.7121ZM66.9325 49.3932C67.0332 48.9137 67.5281 47.7345 68.1843 47.9235C68.8404 48.1124 68.4145 48.656 68.1843 48.7705L66.9325 49.3932Z" stroke="black" stroke-width="0.3"/>
<path d="M65.7812 62.1156C67.2776 57.6006 74.5344 50.3267 87.103 55.2684C86.9034 59.2872 81.4621 65.8665 65.7812 62.1156Z" fill="black" stroke="black" stroke-width="0.1"/>
<path d="M83.9944 56.1568C83.2545 58.4382 73.699 59.9592 69.0137 60.4346C69.0137 60.2506 69.1339 59.6066 69.6146 58.5027C70.2156 57.1228 83.9944 54.823 84.2719 54.823C84.4939 54.823 84.1794 55.7122 83.9944 56.1568Z" fill="white" stroke="black" stroke-width="0.1"/>
<path d="M80.1629 41.0317C82.7383 42.0828 87.5403 46.7472 88.4914 51.2406M62.6297 47.634C61.309 50.3274 59.8197 56.6192 61.0084 58.3535" stroke="black" stroke-width="0.6"/>
<path d="M71.8281 75.474C73.3139 73.5688 77.2727 73.7576 79.1747 74.073" stroke="black" stroke-width="0.5"/>
<path d="M109.057 41.6898C109.46 40.6602 108.458 40.4982 107.908 40.5459C107.74 38.9729 107.996 37.4356 109.057 36.5419C114.663 31.8231 113.226 41.1178 113.945 42.1188C114.663 43.1197 113.585 46.4086 112.795 49.1971C112.004 51.9855 110.279 49.6261 110.135 49.1971" stroke="black" stroke-width="0.3"/>
<path d="M110.022 38.7572C112.521 41.5683 112.163 40.2664 112.372 42.3377C112.538 43.9948 111.628 45.06 111.152 45.3855" stroke="black" stroke-width="0.2"/>
<path d="M110.419 51.5256C109.789 49.6454 108.327 45.7848 107.521 45.3837" stroke="black" stroke-width="0.3"/>
<path d="M83.7812 30.7489C86.152 30.1456 89.3058 30.5346 90.2982 31.2585" stroke="black" stroke-width="0.2"/>
<path d="M59.2967 38.3577C57.347 38.4709 55.3013 39.8663 55.3013 40.969" stroke="black" stroke-width="0.2"/>
<path d="M92.0518 37.9499C93.9417 39.632 97.6618 43.3526 97.4231 44.7775" stroke="black" stroke-width="0.2"/>
<path d="M63.3601 35.043C55.4142 31.6554 54.8467 38.4306 54.8467 38.9952V39.5599L57.1169 38.9953C57.1169 38.5436 61.279 36.1722 63.3601 35.043Z" fill="black"/>
<path d="M83.7922 27.7032C81.5219 26.7999 77.549 30.338 75.8463 32.22H78.6841C78.6841 31.7683 85.1165 30.5262 88.3326 29.9616C87.7651 29.5852 86.0624 28.6066 83.7922 27.7032Z" fill="black"/>
<path d="M63.3601 35.043C55.4142 31.6554 54.8467 38.4306 54.8467 38.9952V39.5599L57.1169 38.9953C57.1169 38.5436 61.279 36.1722 63.3601 35.043Z" stroke="black" stroke-width="0.1"/>
<path d="M83.7922 27.7032C81.5219 26.7999 77.549 30.338 75.8463 32.22H78.6841C78.6841 31.7683 85.1165 30.5262 88.3326 29.9616C87.7651 29.5852 86.0624 28.6066 83.7922 27.7032Z" stroke="black" stroke-width="0.1"/>
<path d="M31.1935 55.9314C30.7935 69.9314 37.0269 75.7647 40.1935 76.9314L38.1936 85.9314C34.9936 87.9314 29.8603 83.7647 27.6936 81.4314C26.0269 82.598 22.2936 84.4314 20.6935 82.4314C19.0934 80.4314 21.6935 75.9314 23.1936 73.9314C22.3602 74.9314 20.3935 77.0314 19.1936 77.4314C17.6937 77.9314 15.6936 73.4314 15.1936 72.4314C14.7936 71.6314 20.0269 68.7647 22.6936 67.4314C20.0269 68.4314 14.2936 69.8314 12.6936 67.4314C11.0936 65.0314 17.3602 61.4314 20.6935 59.9314C12.1935 57.4314 -3.40652 51.8314 2.19348 49.4314C7.79348 47.0314 23.8602 52.7647 31.1935 55.9314Z" fill="#F6E7CC" stroke="black" stroke-linecap="round" stroke-linejoin="round"/>
<path d="M69.4906 86.2765C80.6274 83.0939 91.9188 85.1162 92.2282 74.839C93.9297 82.9613 95.198 81.1048 94.0843 86.2765C97.6419 78.32 101.045 81.4032 101.045 67.877C106.149 71.358 104.664 60.3183 120.998 57.9314C120.07 66.0213 129.722 74.9506 121.926 81.7525L129.815 88.763L122.854 93.2385C129.254 99.0402 139.096 111.737 127.959 122.081C127.784 122.148 127.602 122.217 127.412 122.288C129.141 127.689 132.506 138.591 132.135 138.989C131.671 139.486 105.221 150.923 71.3467 145.453C70.1093 143.961 68.1913 137.795 70.4187 125.065C68.4079 124.899 64.4791 128.546 64.8503 144.459C61.138 143.63 53.6207 141.674 53.2495 140.48C52.7854 138.989 51.8574 121.086 63.4582 114.124L62.9941 107.66C62.1508 107.479 61.3075 102.305 60.6648 96.2222L37.0083 92.2439L40.2565 74.3417L59.538 78.32C59.5625 76.2392 59.7677 75.69 60.2099 77.8227C61.6948 84.9836 67.0157 86.4423 69.4906 86.2765Z" fill="#B0DE28"/>
<path d="M62.9941 107.66L63.4582 114.124M62.9941 107.66C65.1424 108.12 95.1396 109.007 101.045 107.952M62.9941 107.66C62.1508 107.479 61.3075 102.305 60.6648 96.2222M112.646 97.7141L114.038 106.288C111.702 106.971 107.588 105.159 104.757 106.288M112.646 97.7141L104.757 98.7086L103.829 79.3146M112.646 97.7141L122.854 93.2385M114.038 74.3417L121.926 81.7525M121.926 81.7525L129.815 88.763L122.854 93.2385M121.926 81.7525C129.722 74.9506 120.07 66.0213 120.998 57.9314C104.664 60.3183 106.149 71.358 101.045 67.877C101.045 81.4032 97.6419 78.32 94.0843 86.2765C95.198 81.1048 93.9297 82.9613 92.2282 74.839C91.9188 85.1162 80.6274 83.0939 69.4906 86.2765C67.0157 86.4423 61.6948 84.9836 60.2099 77.8227C59.7677 75.69 59.5625 76.2392 59.538 78.32M122.854 93.2385C129.254 99.0402 139.096 111.737 127.959 122.081C127.784 122.148 127.602 122.217 127.412 122.288M104.757 106.288C103.464 106.804 102.439 107.285 101.973 107.66C101.835 107.77 101.517 107.867 101.045 107.952M104.757 106.288C104.175 106.95 104.323 109.044 104.901 111.638M63.4582 114.124C51.8574 121.086 52.7854 138.989 53.2495 140.48C53.6207 141.674 61.138 143.63 64.8503 144.459C64.4791 128.546 68.4079 124.899 70.4187 125.065C68.1913 137.795 70.1093 143.961 71.3467 145.453C105.221 150.923 131.671 139.486 132.135 138.989C132.506 138.591 129.141 127.689 127.412 122.288M63.4582 114.124C73.0537 115.221 91.0939 116.681 98.7247 115.352M101.973 114.124C101.46 114.675 100.319 115.074 98.7247 115.352M101.973 114.124L101.749 112.633M101.973 114.124C102.399 115.822 103.31 118.326 104.757 120.958M101.045 107.952L101.749 112.633M127.412 122.288C122.888 123.983 114.211 126.823 111.718 126.059C110.521 125.693 109.01 123.2 107.671 120.092M59.538 78.32L40.2565 74.3417L37.0083 92.244L60.6648 96.2222M59.538 78.32C59.4969 81.7983 59.9604 89.5564 60.6648 96.2222M115.43 131.529C110.479 129.359 106.984 125.008 104.757 120.958M98.7247 115.352C98.8793 119.418 99.7455 127.551 101.973 127.551M101.749 112.633L104.901 111.638M104.901 111.638C105.488 114.267 106.515 117.409 107.671 120.092M104.757 120.958L107.671 120.092" stroke="black" stroke-linecap="round" stroke-linejoin="round"/>
<path d="M56.2022 49.9388C59.0406 54.3403 62.1078 51.6494 63.2866 49.7538C64.0012 50.9033 66.0293 50.858 66.954 50.6916C69.9945 52.6798 72.0004 52.9007 74.0908 51.9802C75.7631 51.2439 76.9272 49.0839 77.3002 48.096C79.3103 47.5217 79.8833 46.2122 79.9184 45.6292C81.3542 46.5497 83.8458 46.7338 84.7537 46.0342C85.6616 45.3347 86.3795 44.1381 86.0628 43.1441C85.8094 42.3488 86.0674 42.3704 86.228 42.4806C89.0959 44.7994 88.297 47.6175 87.0108 48.4147C85.9818 49.0524 86.9746 49.2208 87.5996 49.2253C89.1431 48.8146 89.316 49.1194 89.2095 49.3231C87.286 52.911 83.7109 52.9768 82.1638 52.5612C82.2703 52.7912 83.0121 53.4643 83.3697 53.7721C79.7275 56.5486 75.4267 55.4129 73.7316 54.498C71.2372 58.4455 67.1388 58.6109 65.4014 58.2002C65.7268 57.3037 65.6118 56.8313 65.5136 56.7072C61.6463 59.3813 58.6949 57.9736 57.7027 56.9355C58.9031 56.6366 59.4889 55.9113 59.6317 55.586C55.1166 54.6559 55.4641 51.4336 56.2022 49.9388Z" fill="black" stroke="black" stroke-width="0.1" stroke-linecap="round" stroke-linejoin="round"/>
<path d="M47.3496 39.8373L47.9077 41.7009C48.9218 41.6401 50.4632 41.6603 51.6104 42.433C53.6009 46.3262 58.8797 46.6897 61.2703 46.3848C67.4176 44.4821 68.3785 39.2855 68.0906 36.925C68.808 29.919 73.3276 34.6536 73.9891 36.3075C74.2958 37.0741 75.0851 37.7744 75.4415 38.0288C83.9065 44.1534 90.7034 35.9265 90.3603 31.133C90.519 30.2742 92.0446 29.3749 92.7875 29.0326L101.998 26.2635C101.848 25.7718 103.464 22.4913 92.6365 26.9787C92.5707 27.006 92.2852 26.7396 92.1123 26.6645C89.8666 27.1457 88.9309 26.5977 88.7437 26.2635C87.3963 24.1621 85.2319 23.0961 84.3182 22.8257C84.9761 22.1544 86.1738 20.8197 85.7012 20.8519C85.1104 20.8922 83.9959 20.0866 82.5055 19.5898C81.3132 19.1923 80.1557 19.8449 79.7261 20.2209C79.7664 19.8478 79.9328 19.0302 80.2766 18.7439C80.6203 18.4575 80.5451 18.2038 80.4646 18.1128C77.0057 17.7153 75.3566 20.0307 74.9645 21.238C74.8542 19.8322 74.574 19.2281 74.4477 19.1018C71.8015 22.4921 72.7938 25.5448 73.6207 26.6473C72.9317 27.3327 72.4485 29.4847 72.2931 30.475C72.1486 30.6815 71.7206 31.05 71.1654 30.8716C70.4715 30.6485 68.7365 30.8096 67.8319 31.7019C67.1082 32.4157 66.3985 32.1975 66.1341 31.9993C65.7673 31.3053 64.1555 30.1322 63.3954 29.6323C62.7508 24.2692 58.4384 23.5601 58.4013 23.6468C58.3715 23.7162 58.9507 25.105 59.2439 25.7907C55.9971 23.337 52.6512 25.9518 52.8619 26.1749C53.0725 26.3979 54.4233 26.9184 54.6216 27.1415C54.7802 27.3199 54.6877 27.3976 54.6216 27.4141C52.0316 27.0671 51.0278 30.2272 50.5569 30.5494C50.1802 30.8071 49.9868 31.0781 49.9373 31.1814C50.4924 31.5978 51.7511 31.8468 52.311 31.9193C50.4218 33.9913 50.1361 36.3988 50.2295 37.3436C50.0217 38.7092 48.1514 39.199 47.8097 39.3029C47.5364 39.386 47.3891 39.6938 47.3496 39.8373Z" fill="black" stroke="black" stroke-width="0.1" stroke-linecap="round" stroke-linejoin="round"/>
<ellipse cx="59.0938" cy="37.3577" rx="6.94974" ry="6.82474" fill="#5BC4F3"/>
<path d="M53.4795 33.5408C52.5632 34.4082 52.2383 35.9479 52.1904 36.6094L62.685 43.2989C63.6506 42.857 64.6148 41.56 64.9762 40.9667L53.4795 33.5408Z" fill="#D4F1FD"/>
<path d="M55.2729 31.6374C55.0219 31.6602 54.4458 32.2648 54.1891 32.5643L65.5922 39.8231C65.8112 39.2714 65.916 38.695 65.941 38.4758C62.4895 36.1868 55.5238 31.6146 55.2729 31.6374Z" fill="#D4F1FD"/>
<path d="M53.4795 33.5408C52.5632 34.4082 52.2383 35.9479 52.1904 36.6094L62.685 43.2989C63.6506 42.857 64.6148 41.56 64.9762 40.9667L53.4795 33.5408Z" stroke="black"/>
<path d="M55.2729 31.6374C55.0219 31.6602 54.4458 32.2648 54.1891 32.5643L65.5922 39.8231C65.8112 39.2714 65.916 38.695 65.941 38.4758C62.4895 36.1868 55.5238 31.6146 55.2729 31.6374Z" stroke="black"/>
<ellipse cx="81.0083" cy="31.6373" rx="6.94974" ry="6.82474" fill="#5BC4F3"/>
<path d="M75.394 27.8204C74.4777 28.6878 74.1529 30.2275 74.105 30.8889L84.5996 37.5784C85.5652 37.1366 86.5294 35.8396 86.8908 35.2463L75.394 27.8204Z" fill="#D4F1FD"/>
<path d="M77.1874 25.917C76.9364 25.9398 76.3603 26.5444 76.1037 26.8438L87.5067 34.1027C87.7258 33.551 87.8305 32.9746 87.8555 32.7553C84.4041 30.4664 77.4384 25.8941 77.1874 25.917Z" fill="#D4F1FD"/>
<path d="M75.394 27.8204C74.4777 28.6878 74.1529 30.2275 74.105 30.8889L84.5996 37.5784C85.5652 37.1366 86.5294 35.8396 86.8908 35.2463L75.394 27.8204Z" stroke="black"/>
<path d="M77.1874 25.917C76.9364 25.9398 76.3603 26.5444 76.1037 26.8438L87.5067 34.1027C87.7258 33.551 87.8305 32.9746 87.8555 32.7553C84.4041 30.4664 77.4384 25.8941 77.1874 25.917Z" stroke="black"/>
</svg>
