<svg width="134" height="208" viewBox="0 0 134 208" fill="none" xmlns="http://www.w3.org/2000/svg">
<path d="M73.8613 178.936C67.1907 186.12 66.5921 191.551 67.1266 193.368C67.6397 192.855 88.2929 170.919 98.5554 160.015L84.7016 149.272L91.6794 140.824L85.0887 138.483L78.8737 150.833L90.8586 160.015C87.9722 163.329 80.5319 171.753 73.8613 178.936Z" fill="#282121" stroke="black" stroke-linecap="round" stroke-linejoin="round"/>
<path d="M46.0115 184.315C46.1579 184.862 83.1853 177.067 99.4971 181.481L103.704 160.646L117.709 141.019L112.56 139.201L98.9409 157.896L96.1135 177.449C61.9658 170.929 45.8285 183.632 46.0115 184.315Z" fill="#282121" stroke="black" stroke-linecap="round" stroke-linejoin="round"/>
<path d="M51.6664 42.9119C52.234 41.7826 43.7207 -2.25623 89.1254 6.7774C97.6387 11.106 113.53 22.0217 108.99 31.0553C110.503 31.9963 112.596 34.7451 112.596 35.6484C112.596 36.7776 116.693 47.2311 110.692 50.8163L110.125 51.3809C110.692 54.7685 111.033 62.673 107.855 67.1898C107.971 68.9418 108.701 72.7106 110.692 73.77C113.181 75.0942 111.96 84.5932 95.7813 90.2426C80.2967 93.9068 55.837 90.4514 60.7472 75.0942C57.9094 70.5774 54.5041 64.9314 55.0716 64.3668C55.5257 63.9151 54.5041 58.5326 53.9365 55.8977C52.423 52.8865 50.7891 47.2009 51.2432 46.7492C51.6972 46.2975 51.288 43.8529 51.6664 42.9119Z" fill="#F6E7CC"/>
<path d="M107.855 67.1898C111.033 62.673 110.692 54.7685 110.125 51.3809L110.692 50.8163C116.693 47.2311 112.596 36.7776 112.596 35.6484C112.596 34.7451 110.503 31.9963 108.99 31.0553C113.53 22.0217 97.6387 11.106 89.1254 6.7774C43.7207 -2.25623 52.234 41.7826 51.6664 42.9119C51.288 43.8529 51.6972 46.2975 51.2432 46.7492C50.7891 47.2009 52.423 52.8865 53.9365 55.8977C54.5041 58.5326 55.5257 63.9151 55.0716 64.3668C54.5041 64.9314 57.9094 70.5774 60.7472 75.0942M107.855 67.1898C103.882 72.8358 78.762 82.9809 73.654 81.8517C68.546 80.7225 63.585 79.611 60.7472 75.0942M107.855 67.1898C107.971 68.9418 108.701 72.7106 110.692 73.77C113.181 75.0942 111.96 84.5932 95.7813 90.2426C80.2967 93.9068 55.837 90.4514 60.7472 75.0942" stroke="black" stroke-width="0.5"/>
<path d="M90.26 19.1986C95.2545 16.4885 90.4492 9.4122 87.4222 6.21279C79.035 4.88842 73.8008 5.6482 67.5577 9.03581C53.3687 8.47121 50.7972 31.6756 51.6659 42.9119C48.4876 42.0085 48.4498 33.8783 48.8283 29.9261C47.6931 27.1031 53.3687 9.0358 61.8821 3.38978C68.6928 -1.12703 77.2062 1.50777 80.6115 3.38978L89.1249 3.95438C108.195 5.76111 114.097 24.28 114.665 33.3137C113.53 35.5721 109.557 36.1367 109.557 35.5721C109.557 35.1204 108.044 34.6311 107.287 34.4429C107.287 35.3839 106.946 37.3788 105.584 37.8305C104.222 38.2822 101.611 35.0075 100.476 33.3137C102.292 29.2485 100.098 26.7266 98.7734 25.9738C95.5951 27.7806 91.7735 22.2098 90.26 19.1986Z" fill="black" stroke="black" stroke-width="0.1"/>
<path d="M60.179 24.8448C57.9088 23.9414 54.3143 29.738 52.8008 32.7492C54.3143 31.62 57.7953 29.2486 59.6115 28.797C61.8817 28.2324 63.0168 25.974 60.179 24.8448Z" fill="black"/>
<path d="M75.5031 25.9739C73.6869 26.8773 73.6113 24.0919 73.8004 22.5863C76.0707 20.8925 84.0165 20.3279 85.1516 22.0217C86.0597 23.3768 84.0165 24.0919 82.8814 24.2801C78.3409 23.7155 77.7734 24.8448 75.5031 25.9739Z" fill="black"/>
<path d="M60.179 24.8448C57.9088 23.9414 54.3143 29.738 52.8008 32.7492C54.3143 31.62 57.7953 29.2486 59.6115 28.797C61.8817 28.2324 63.0168 25.974 60.179 24.8448Z" stroke="black" stroke-width="0.1"/>
<path d="M75.5031 25.9739C73.6869 26.8773 73.6113 24.0919 73.8004 22.5863C76.0707 20.8925 84.0165 20.3279 85.1516 22.0217C86.0597 23.3768 84.0165 24.0919 82.8814 24.2801C78.3409 23.7155 77.7734 24.8448 75.5031 25.9739Z" stroke="black" stroke-width="0.1"/>
<path d="M77.2062 45.7349C76.2981 45.2833 74.612 45.914 74.3684 46.8641H74.612L77.2062 45.7349Z" fill="black"/>
<path d="M67.8405 47.8879C67.1844 47.699 66.6894 48.8781 66.5887 49.3576L67.8405 48.735C68.0707 48.6205 68.4966 48.0769 67.8405 47.8879Z" fill="black"/>
<path d="M76.4866 40.675C78.162 41.1821 82.6546 43.8153 79.4763 45.1703M64.1522 45.7349C63.5847 47.2405 63.1306 50.1388 65.8549 49.6872M68.9387 32.06C68.7268 35.5936 68.4302 42.9118 68.9387 43.9156M72.5862 41.4069C73.2688 41.4069 74.4955 42.4929 74.3684 43.1252M74.3684 46.8641C74.612 45.914 76.2981 45.2833 77.2062 45.7349L74.612 46.8641H74.3684ZM66.5887 49.3576C66.6894 48.8781 67.1844 47.699 67.8405 47.8879C68.4966 48.0769 68.0707 48.6205 67.8405 48.735L66.5887 49.3576Z" stroke="black" stroke-width="0.3"/>
<path d="M65.4385 62.0801C66.9348 57.5651 74.1917 50.2912 86.7602 55.2328C86.5607 59.2517 81.1193 65.831 65.4385 62.0801Z" fill="black" stroke="black" stroke-width="0.1"/>
<path d="M83.6511 56.1213C82.9113 58.4027 73.3557 59.9237 68.6704 60.399C68.6704 60.215 68.7906 59.5711 69.2714 58.4672C69.8723 57.0873 83.6511 54.7874 83.9286 54.7874C84.1506 54.7874 83.8361 55.6767 83.6511 56.1213Z" fill="white" stroke="black" stroke-width="0.1"/>
<path d="M79.8201 40.9962C82.3955 42.0473 87.1976 46.7116 88.1486 51.2051M62.2869 47.5984C60.9662 50.2919 59.4769 56.5836 60.6656 58.3179" stroke="black" stroke-width="0.6"/>
<path d="M71.4854 75.4384C72.9711 73.5333 76.93 73.7221 78.8319 74.0374" stroke="black" stroke-width="0.5"/>
<path d="M108.714 41.6543C109.116 40.6247 108.115 40.4626 107.564 40.5103C107.397 38.9374 107.652 37.4 108.714 36.5064C114.32 31.7876 112.883 41.0822 113.601 42.0832C114.32 43.0842 113.242 46.3731 112.451 49.1615C111.661 51.9499 109.936 49.5905 109.792 49.1615" stroke="black" stroke-width="0.3"/>
<path d="M109.679 38.7216C112.177 41.5328 111.82 40.2308 112.028 42.3021C112.195 43.9592 111.285 45.0245 110.809 45.35" stroke="black" stroke-width="0.2"/>
<path d="M110.076 51.49C109.446 49.6099 107.984 45.7492 107.178 45.3481" stroke="black" stroke-width="0.3"/>
<path d="M83.4385 30.7133C85.8092 30.11 88.963 30.499 89.9555 31.223" stroke="black" stroke-width="0.2"/>
<path d="M58.9534 38.3222C57.0037 38.4354 54.958 39.8308 54.958 40.9335" stroke="black" stroke-width="0.2"/>
<path d="M91.709 37.9143C93.5989 39.5965 97.319 43.317 97.0803 44.7419" stroke="black" stroke-width="0.2"/>
<path d="M63.0168 35.0075C55.071 31.6199 54.5034 38.3951 54.5034 38.9597V39.5243L56.7737 38.9597C56.7737 38.508 60.9357 36.1367 63.0168 35.0075Z" fill="black"/>
<path d="M83.4489 27.6677C81.1787 26.7643 77.2058 30.3025 75.5031 32.1845H78.3409C78.3409 31.7328 84.7732 30.4907 87.9894 29.9261C87.4218 29.5497 85.7191 28.571 83.4489 27.6677Z" fill="black"/>
<path d="M63.0168 35.0075C55.071 31.6199 54.5034 38.3951 54.5034 38.9597V39.5243L56.7737 38.9597C56.7737 38.508 60.9357 36.1367 63.0168 35.0075Z" stroke="black" stroke-width="0.1"/>
<path d="M83.4489 27.6677C81.1787 26.7643 77.2058 30.3025 75.5031 32.1845H78.3409C78.3409 31.7328 84.7732 30.4907 87.9894 29.9261C87.4218 29.5497 85.7191 28.571 83.4489 27.6677Z" stroke="black" stroke-width="0.1"/>
<path d="M30.8503 55.8958C30.4503 69.8958 36.6836 75.7292 39.8503 76.8958L37.8503 85.8958C34.6503 87.8958 29.517 83.7291 27.3503 81.3958C25.6837 82.5625 21.9503 84.3958 20.3502 82.3958C18.7501 80.3958 21.3503 75.8958 22.8503 73.8958C22.017 74.8958 20.0502 76.9958 18.8503 77.3958C17.3505 77.8958 15.3503 73.3958 14.8503 72.3958C14.4503 71.5958 19.6837 68.7291 22.3503 67.3958C19.6837 68.3958 13.9503 69.7958 12.3503 67.3958C10.7503 64.9958 17.0169 61.3958 20.3502 59.8958C11.8502 57.3958 -3.74978 51.7958 1.85022 49.3958C7.45022 46.9958 23.5169 52.7292 30.8503 55.8958Z" fill="#F6E7CC" stroke="black" stroke-linecap="round" stroke-linejoin="round"/>
<path d="M69.1473 86.241C80.2841 83.0584 91.5756 85.0807 91.8849 74.8035C93.5864 82.9258 94.8547 81.0692 93.7411 86.241C97.2986 78.2845 100.702 81.3676 100.702 67.8415C105.806 71.3225 104.321 60.2828 120.655 57.8958C119.727 65.9858 129.379 74.915 121.583 81.7169L129.472 88.7274L122.511 93.203C128.911 99.0046 138.752 111.702 127.615 122.045C127.441 122.112 127.258 122.181 127.068 122.253C128.797 127.654 132.163 138.555 131.792 138.953C131.328 139.45 104.878 150.888 71.0035 145.418C69.7661 143.926 67.8481 137.76 70.0754 125.029C68.0646 124.863 64.1358 128.51 64.507 144.423C60.7948 143.594 53.2774 141.638 52.9062 140.445C52.4422 138.953 51.5141 121.051 63.1149 114.089L62.6509 107.624C61.8076 107.443 60.9643 102.27 60.3215 96.1867L36.665 92.2084L39.9133 74.3062L59.1947 78.2845C59.2193 76.2036 59.4244 75.6545 59.8667 77.7872C61.3516 84.9481 66.6725 86.4068 69.1473 86.241Z" fill="#B0DE28"/>
<path d="M62.6509 107.624L63.1149 114.089M62.6509 107.624C64.7992 108.085 94.7963 108.971 100.702 107.916M62.6509 107.624C61.8076 107.443 60.9643 102.27 60.3215 96.1867M112.302 97.6785L113.694 106.252C111.359 106.935 107.245 105.123 104.414 106.252M112.302 97.6785L104.414 98.6731L103.486 79.279M112.302 97.6785L122.511 93.203M113.694 74.3062L121.583 81.7169M121.583 81.7169L129.472 88.7274L122.511 93.203M121.583 81.7169C129.379 74.915 119.727 65.9858 120.655 57.8958C104.321 60.2828 105.806 71.3225 100.702 67.8415C100.702 81.3676 97.2987 78.2845 93.7411 86.241C94.8547 81.0692 93.5864 82.9258 91.8849 74.8035C91.5756 85.0807 80.2841 83.0584 69.1473 86.241C66.6725 86.4068 61.3516 84.9481 59.8667 77.7872C59.4244 75.6545 59.2193 76.2036 59.1947 78.2845M122.511 93.203C128.911 99.0046 138.752 111.702 127.615 122.045C127.441 122.112 127.258 122.181 127.068 122.253M104.414 106.252C103.121 106.768 102.095 107.25 101.63 107.624C101.492 107.735 101.174 107.832 100.702 107.916M104.414 106.252C103.832 106.914 103.98 109.009 104.558 111.602M63.1149 114.089C51.5141 121.051 52.4422 138.953 52.9062 140.445C53.2774 141.638 60.7948 143.594 64.507 144.423C64.1358 128.51 68.0646 124.863 70.0754 125.029C67.8481 137.76 69.7661 143.926 71.0035 145.418C104.878 150.888 131.328 139.45 131.792 138.953C132.163 138.555 128.797 127.654 127.068 122.253M63.1149 114.089C72.7104 115.186 90.7506 116.646 98.3814 115.316M101.63 114.089C101.116 114.639 99.9762 115.039 98.3814 115.316M101.63 114.089L101.405 112.597M101.63 114.089C102.056 115.786 102.967 118.291 104.414 120.922M100.702 107.916L101.405 112.597M127.068 122.253C122.545 123.948 113.868 126.787 111.374 126.024C110.178 125.657 108.667 123.165 107.328 120.056M59.1947 78.2845L39.9133 74.3062L36.665 92.2084L60.3215 96.1867M59.1947 78.2845C59.1536 81.7627 59.6172 89.5208 60.3215 96.1867M115.087 131.494C110.136 129.323 106.64 124.973 104.414 120.922M98.3814 115.316C98.5361 119.383 99.4023 127.516 101.63 127.516M101.405 112.597L104.558 111.602M104.558 111.602C105.144 114.231 106.172 117.373 107.328 120.056M104.414 120.922L107.328 120.056" stroke="black" stroke-linecap="round" stroke-linejoin="round"/>
<path d="M56.3695 53.0289C59.7231 57.0517 62.4395 54.0071 63.3785 51.9819C64.2279 53.0358 66.2354 52.7436 67.1329 52.4658C70.3931 54.0686 72.4109 54.0434 74.3735 52.8751C75.9436 51.9404 76.8358 49.6547 77.0857 48.6287C79.0108 47.8136 79.4199 46.4441 79.3838 45.8612C80.921 46.5998 83.4164 46.4789 84.2324 45.6739C85.0483 44.8689 85.615 43.5938 85.1795 42.6457C84.8311 41.8873 85.0897 41.8773 85.2626 41.9671C88.3917 43.9191 87.9422 46.8136 86.7627 47.7615C85.8191 48.5199 86.825 48.566 87.446 48.4943C88.9278 47.8986 89.1366 48.18 89.0557 48.3952C87.5839 52.1908 84.0434 52.6918 82.4572 52.4679C82.5909 52.6832 83.4092 53.2608 83.8016 53.5228C80.525 56.7224 76.1178 56.1193 74.3238 55.4178C72.3292 59.6399 68.2814 60.3036 66.5069 60.1076C66.7206 59.1782 66.549 58.7233 66.4364 58.612C62.9237 61.7376 59.8229 60.7001 58.7115 59.7906C59.8665 59.3476 60.3595 58.5563 60.4617 58.2161C55.8669 57.8431 55.8191 54.6026 56.3695 53.0289Z" fill="black" stroke="black" stroke-width="0.1" stroke-linecap="round" stroke-linejoin="round"/>
<path d="M44.8252 38.4403L45.3833 40.304C46.3974 40.2431 47.9388 40.2634 49.086 41.036C51.0765 44.9293 56.3553 45.2927 58.7459 44.9878C64.8931 43.0851 65.8541 37.8885 65.5662 35.5281C66.2836 28.5221 70.8032 33.2566 71.4647 34.9105C71.7714 35.6771 72.5607 36.3775 72.9171 36.6318C81.382 42.7565 88.179 34.5295 87.8359 29.7361C87.9946 28.8772 89.5201 27.978 90.2631 27.6357L99.4731 24.8665C99.3235 24.3749 100.94 21.0944 90.1121 25.5818C90.0462 25.6091 89.7608 25.3427 89.5879 25.2676C87.3422 25.7488 86.4065 25.2007 86.2193 24.8665C84.8719 22.7652 82.7075 21.6991 81.7938 21.4288C82.4517 20.7574 83.6494 19.4228 83.1768 19.455C82.586 19.4953 81.4715 18.6896 79.9811 18.1928C78.7888 17.7954 77.6313 18.448 77.2017 18.8239C77.2419 18.4509 77.4084 17.6333 77.7522 17.3469C78.0959 17.0606 78.0207 16.8069 77.9402 16.7158C74.4813 16.3184 72.8322 18.6337 72.4401 19.841C72.3298 18.4353 72.0496 17.8312 71.9232 17.7049C69.2771 21.0952 70.2694 24.1479 71.0963 25.2504C70.4072 25.9357 69.9241 28.0877 69.7687 29.0781C69.6241 29.2846 69.1962 29.6531 68.641 29.4746C67.947 29.2516 66.2121 29.4127 65.3075 30.3049C64.5837 31.0187 63.8741 30.8006 63.6097 30.6023C63.2429 29.9084 61.6311 28.7352 60.871 28.2354C60.2264 22.8723 55.914 22.1631 55.8769 22.2499C55.8471 22.3193 56.4262 23.708 56.7195 24.3937C53.4727 21.94 50.1268 24.5548 50.3375 24.7779C50.5481 25.001 51.8989 25.5215 52.0972 25.7445C52.2558 25.923 52.1633 26.0006 52.0972 26.0171C49.5072 25.6702 48.5034 28.8302 48.0325 29.1524C47.6557 29.4102 47.4624 29.6812 47.4128 29.7845C47.968 30.2008 49.2266 30.4499 49.7865 30.5223C47.8974 32.5943 47.6117 35.0019 47.705 35.9467C47.4972 37.3122 45.627 37.8021 45.2853 37.906C45.012 37.9891 44.8647 38.2968 44.8252 38.4403Z" fill="black" stroke="black" stroke-width="0.1" stroke-linecap="round" stroke-linejoin="round"/>
<ellipse cx="56.5694" cy="35.9608" rx="6.94974" ry="6.82474" fill="#5BC4F3"/>
<path d="M50.9551 32.1438C50.0388 33.0112 49.7139 34.551 49.666 35.2124L60.1606 41.9019C61.1262 41.46 62.0904 40.1631 62.4518 39.5698L50.9551 32.1438Z" fill="#D4F1FD"/>
<path d="M52.7484 30.2404C52.4975 30.2633 51.9214 30.8679 51.6647 31.1673L63.0678 38.4262C63.2868 37.8745 63.3916 37.2981 63.4166 37.0788C59.9651 34.7898 52.9994 30.2176 52.7484 30.2404Z" fill="#D4F1FD"/>
<path d="M50.9551 32.1438C50.0388 33.0112 49.7139 34.551 49.666 35.2124L60.1606 41.9019C61.1262 41.46 62.0904 40.1631 62.4518 39.5698L50.9551 32.1438Z" stroke="black"/>
<path d="M52.7484 30.2404C52.4975 30.2633 51.9214 30.8679 51.6647 31.1673L63.0678 38.4262C63.2868 37.8745 63.3916 37.2981 63.4166 37.0788C59.9651 34.7898 52.9994 30.2176 52.7484 30.2404Z" stroke="black"/>
<ellipse cx="78.4839" cy="30.2404" rx="6.94974" ry="6.82474" fill="#5BC4F3"/>
<path d="M72.8696 26.4234C71.9533 27.2908 71.6285 28.8305 71.5806 29.492L82.0752 36.1815C83.0408 35.7396 84.005 34.4426 84.3664 33.8494L72.8696 26.4234Z" fill="#D4F1FD"/>
<path d="M74.663 24.52C74.412 24.5428 73.8359 25.1474 73.5793 25.4469L84.9823 32.7057C85.2014 32.1541 85.3061 31.5776 85.3311 31.3584C81.8796 29.0694 74.914 24.4972 74.663 24.52Z" fill="#D4F1FD"/>
<path d="M72.8696 26.4234C71.9533 27.2908 71.6285 28.8305 71.5806 29.492L82.0752 36.1815C83.0408 35.7396 84.005 34.4426 84.3664 33.8494L72.8696 26.4234Z" stroke="black"/>
<path d="M74.663 24.52C74.412 24.5428 73.8359 25.1474 73.5793 25.4469L84.9823 32.7057C85.2014 32.1541 85.3061 31.5776 85.3311 31.3584C81.8796 29.0694 74.914 24.4972 74.663 24.52Z" stroke="black"/>
</svg>
